<svg width="34" height="15" viewBox="0 0 34 15" fill="none" xmlns="http://www.w3.org/2000/svg">
<path fill-rule="evenodd" clip-rule="evenodd" d="M6.69643 2.12425C6.30966 2.59345 5.69084 2.96352 5.07202 2.91065C4.99467 2.27625 5.29764 1.60219 5.65217 1.18586C6.03893 0.703445 6.71576 0.359808 7.26368 0.333374C7.32814 0.994215 7.07674 1.64184 6.69643 2.12425ZM7.25718 3.03621C6.71201 3.00404 6.21457 3.20429 5.81277 3.36604C5.55421 3.47013 5.33525 3.55827 5.16867 3.55827C4.98173 3.55827 4.75373 3.46541 4.49774 3.36116C4.16231 3.22455 3.77882 3.06836 3.37667 3.07586C2.45489 3.08907 1.59756 3.62435 1.127 4.47684C0.160096 6.1818 0.875606 8.70621 1.81028 10.094C2.26795 10.7812 2.81586 11.5346 3.53782 11.5082C3.85544 11.4959 4.08391 11.3965 4.32036 11.2936C4.59258 11.1752 4.87537 11.0522 5.31693 11.0522C5.74317 11.0522 6.01359 11.172 6.27318 11.287C6.52001 11.3964 6.75704 11.5014 7.10892 11.495C7.85666 11.4817 8.32723 10.8077 8.78489 10.1204C9.27879 9.38278 9.49584 8.66288 9.52877 8.55364L9.53263 8.541C9.53185 8.54019 9.52575 8.53733 9.515 8.53229L9.51498 8.53228C9.34987 8.45479 8.08793 7.86252 8.07583 6.27432C8.06368 4.94126 9.07677 4.26585 9.23625 4.15953L9.23628 4.15951C9.24597 4.15305 9.2525 4.14869 9.25546 4.14642C8.61085 3.16837 7.60527 3.06264 7.25718 3.03621ZM12.4334 11.4223V1.11977H16.2043C18.151 1.11977 19.5112 2.49431 19.5112 4.50327C19.5112 6.51222 18.1252 7.89998 16.1528 7.89998H13.9933V11.4223H12.4334ZM13.9932 2.46788H15.7917C17.1453 2.46788 17.9189 3.20802 17.9189 4.50987C17.9189 5.81173 17.1453 6.55848 15.7852 6.55848H13.9932V2.46788ZM24.6616 10.1865C24.2491 10.9927 23.3402 11.5016 22.3604 11.5016C20.91 11.5016 19.898 10.616 19.898 9.28115C19.898 7.95947 20.8778 7.1995 22.6891 7.08716L24.6358 6.96821V6.39989C24.6358 5.56062 24.1008 5.10464 23.1468 5.10464C22.3604 5.10464 21.7867 5.52097 21.6706 6.15537H20.2654C20.3105 4.82048 21.5353 3.84904 23.1919 3.84904C24.9775 3.84904 26.1378 4.80726 26.1378 6.29415V11.4223H24.6938V10.1865H24.6616ZM22.7793 10.279C21.9477 10.279 21.4191 9.8693 21.4191 9.2415C21.4191 8.59388 21.9284 8.2172 22.9017 8.15772L24.6357 8.04538V8.62692C24.6357 9.59174 23.8364 10.279 22.7793 10.279ZM30.9271 11.8254C30.3018 13.6295 29.5863 14.2242 28.0651 14.2242C27.949 14.2242 27.5623 14.211 27.472 14.1846V12.9488C27.5687 12.962 27.8072 12.9753 27.9297 12.9753C28.6194 12.9753 29.0062 12.6779 29.2447 11.9047L29.3865 11.4487L26.7436 3.94818H28.3745L30.2116 10.0345H30.2438L32.0809 3.94818H33.6667L30.9271 11.8254Z" fill="black"/>
</svg>
