<svg width="23" height="16" viewBox="0 0 23 16" fill="none" xmlns="http://www.w3.org/2000/svg">
<path d="M1.7535 8.71318C1.61731 8.49754 1.54922 8.38972 1.5111 8.22342C1.48247 8.0985 1.48247 7.9015 1.5111 7.77658C1.54922 7.61028 1.61731 7.50246 1.7535 7.28682C2.8789 5.50484 6.22877 1 11.3338 1C16.4388 1 19.7887 5.50484 20.9141 7.28682C21.0502 7.50246 21.1183 7.61028 21.1565 7.77658C21.1851 7.9015 21.1851 8.0985 21.1565 8.22342C21.1183 8.38972 21.0502 8.49754 20.9141 8.71318C19.7887 10.4952 16.4388 15 11.3338 15C6.22877 15 2.8789 10.4952 1.7535 8.71318Z" stroke="#F5F5F6" stroke-width="2" stroke-linecap="round" stroke-linejoin="round"/>
<path d="M11.3338 11C12.9906 11 14.3338 9.65685 14.3338 8C14.3338 6.34315 12.9906 5 11.3338 5C9.67692 5 8.33378 6.34315 8.33378 8C8.33378 9.65685 9.67692 11 11.3338 11Z" stroke="#F5F5F6" stroke-width="2" stroke-linecap="round" stroke-linejoin="round"/>
</svg>
