<svg width="234" height="52" viewBox="0 0 234 52" fill="none" xmlns="http://www.w3.org/2000/svg">
<g filter="url(#filter0_d_4_624)">
<path d="M2.83337 11C2.83337 5.75329 7.08667 1.5 12.3334 1.5H40.3334C45.5801 1.5 49.8334 5.75329 49.8334 11V39C49.8334 44.2467 45.5801 48.5 40.3334 48.5H12.3334C7.08667 48.5 2.83337 44.2467 2.83337 39V11Z" stroke="#333741" shape-rendering="crispEdges"/>
<path d="M19.3333 26C19.3333 27.6484 19.998 29.1415 21.074 30.226C21.1778 30.3305 21.2297 30.3828 21.2603 30.4331C21.2896 30.4811 21.3066 30.5224 21.3196 30.5771C21.3333 30.6343 21.3333 30.6995 21.3333 30.8298V33.2C21.3333 33.48 21.3333 33.62 21.3878 33.727C21.4357 33.8211 21.5122 33.8976 21.6063 33.9455C21.7133 34 21.8533 34 22.1333 34H24.0333C24.3133 34 24.4533 34 24.5603 33.9455C24.6544 33.8976 24.7309 33.8211 24.7788 33.727C24.8333 33.62 24.8333 33.48 24.8333 33.2V32.8C24.8333 32.52 24.8333 32.38 24.8878 32.273C24.9357 32.1789 25.0122 32.1024 25.1063 32.0545C25.2133 32 25.3533 32 25.6333 32H27.0333C27.3133 32 27.4533 32 27.5603 32.0545C27.6544 32.1024 27.7309 32.1789 27.7788 32.273C27.8333 32.38 27.8333 32.52 27.8333 32.8V33.2C27.8333 33.48 27.8333 33.62 27.8878 33.727C27.9357 33.8211 28.0122 33.8976 28.1063 33.9455C28.2133 34 28.3533 34 28.6333 34H30.5334C30.8134 34 30.9534 34 31.0604 33.9455C31.1545 33.8976 31.2309 33.8211 31.2789 33.727C31.3334 33.62 31.3334 33.48 31.3334 33.2V32.2243C31.3334 32.0223 31.3334 31.9212 31.3621 31.8401C31.3897 31.7624 31.4244 31.708 31.4833 31.6502C31.5448 31.59 31.6489 31.5417 31.8571 31.445C32.8393 30.989 33.6774 30.2751 34.2845 29.3902C34.3912 29.2346 34.4446 29.1568 34.5016 29.1108C34.5561 29.0668 34.605 29.0411 34.6721 29.021C34.7423 29 34.8255 29 34.9921 29H35.5334C35.8134 29 35.9534 29 36.0604 28.9455C36.1545 28.8976 36.2309 28.8211 36.2789 28.727C36.3334 28.62 36.3334 28.48 36.3334 28.2V24.7857C36.3334 24.5192 36.3334 24.3859 36.2838 24.283C36.2347 24.181 36.1524 24.0987 36.0503 24.0495C35.9475 24 35.8142 24 35.5476 24C35.3547 24 35.2582 24 35.1805 23.9738C35.0967 23.9456 35.0379 23.908 34.9771 23.8438C34.9207 23.7842 34.8747 23.6846 34.7826 23.4855C34.4872 22.8462 34.0825 22.2678 33.5926 21.774C33.4889 21.6695 33.437 21.6172 33.4063 21.5669C33.3771 21.5189 33.3601 21.4776 33.3471 21.4229C33.3334 21.3657 33.3334 21.3005 33.3334 21.1702V20.0606C33.3334 19.7005 33.3334 19.5205 33.2584 19.3995C33.1927 19.2935 33.0898 19.2159 32.9698 19.1818C32.8329 19.143 32.6598 19.1924 32.3136 19.2914L29.941 19.9692C29.9007 19.9807 29.8806 19.9865 29.8601 19.9905C29.8419 19.9941 29.8235 19.9967 29.805 19.9983C29.7842 20 29.7632 20 29.7213 20H29.2924M19.3333 26C19.3333 23.6959 20.632 21.6952 22.5373 20.6899M19.3333 26H18.3334C17.2288 26 16.3334 25.1046 16.3334 24C16.3334 23.2597 16.7356 22.6134 17.3334 22.2676M29.3334 19.5C29.3334 21.433 27.7664 23 25.8334 23C23.9004 23 22.3334 21.433 22.3334 19.5C22.3334 17.567 23.9004 16 25.8334 16C27.7664 16 29.3334 17.567 29.3334 19.5Z" stroke="#CECFD2" stroke-width="2" stroke-linecap="round" stroke-linejoin="round"/>
<path d="M209.753 25.7132C209.617 25.4975 209.549 25.3897 209.511 25.2234C209.482 25.0985 209.482 24.9015 209.511 24.7766C209.549 24.6103 209.617 24.5025 209.753 24.2868C210.879 22.5048 214.229 18 219.334 18C224.439 18 227.789 22.5048 228.914 24.2868C229.05 24.5025 229.118 24.6103 229.156 24.7766C229.185 24.9015 229.185 25.0985 229.156 25.2234C229.118 25.3897 229.05 25.4975 228.914 25.7132C227.789 27.4952 224.439 32 219.334 32C214.229 32 210.879 27.4952 209.753 25.7132Z" stroke="#F5F5F6" stroke-width="2" stroke-linecap="round" stroke-linejoin="round"/>
<path d="M219.334 28C220.991 28 222.334 26.6569 222.334 25C222.334 23.3431 220.991 22 219.334 22C217.677 22 216.334 23.3431 216.334 25C216.334 26.6569 217.677 28 219.334 28Z" stroke="#F5F5F6" stroke-width="2" stroke-linecap="round" stroke-linejoin="round"/>
</g>
<defs>
<filter id="filter0_d_4_624" x="0.333374" y="0" width="233" height="52" filterUnits="userSpaceOnUse" color-interpolation-filters="sRGB">
<feFlood flood-opacity="0" result="BackgroundImageFix"/>
<feColorMatrix in="SourceAlpha" type="matrix" values="0 0 0 0 0 0 0 0 0 0 0 0 0 0 0 0 0 0 127 0" result="hardAlpha"/>
<feOffset dy="1"/>
<feGaussianBlur stdDeviation="1"/>
<feComposite in2="hardAlpha" operator="out"/>
<feColorMatrix type="matrix" values="0 0 0 0 0.0627451 0 0 0 0 0.0941176 0 0 0 0 0.156863 0 0 0 0.05 0"/>
<feBlend mode="normal" in2="BackgroundImageFix" result="effect1_dropShadow_4_624"/>
<feBlend mode="normal" in="SourceGraphic" in2="effect1_dropShadow_4_624" result="shape"/>
</filter>
</defs>
</svg>
