<svg width="53" height="52" viewBox="0 0 53 52" fill="none" xmlns="http://www.w3.org/2000/svg">
<g filter="url(#filter0_d_4_641)">
<path d="M3.16663 11C3.16663 5.75329 7.41992 1.5 12.6666 1.5H40.6666C45.9133 1.5 50.1666 5.75329 50.1666 11V39C50.1666 44.2467 45.9133 48.5 40.6666 48.5H12.6666C7.41992 48.5 3.16663 44.2467 3.16663 39V11Z" stroke="#333741" shape-rendering="crispEdges"/>
<path d="M16.6666 30V29.8498C16.6666 29.5333 16.6666 29.3751 16.6908 29.2209C16.7123 29.084 16.748 28.9497 16.7972 28.8202C16.8527 28.6743 16.9312 28.5369 17.0882 28.2622L20.6666 22M16.6666 30C16.6666 32.2091 18.4575 34 20.6666 34C22.8758 34 24.6666 32.2091 24.6666 30M16.6666 30V29.8C16.6666 29.52 16.6666 29.38 16.7211 29.273C16.7691 29.1789 16.8455 29.1024 16.9396 29.0545C17.0466 29 17.1866 29 17.4666 29H23.8666C24.1467 29 24.2867 29 24.3936 29.0545C24.4877 29.1024 24.5642 29.1789 24.6121 29.273C24.6666 29.38 24.6666 29.52 24.6666 29.8V30M20.6666 22L24.245 28.2622C24.402 28.5369 24.4805 28.6743 24.536 28.8202C24.5853 28.9497 24.6209 29.084 24.6424 29.2209C24.6666 29.3751 24.6666 29.5333 24.6666 29.8498V30M20.6666 22L32.6666 20M28.6666 28V27.8498C28.6666 27.5333 28.6666 27.3751 28.6908 27.2209C28.7123 27.084 28.748 26.9497 28.7972 26.8202C28.8527 26.6743 28.9312 26.5369 29.0882 26.2622L32.6666 20M28.6666 28C28.6666 30.2091 30.4575 32 32.6666 32C34.8758 32 36.6666 30.2091 36.6666 28M28.6666 28V27.8C28.6666 27.52 28.6666 27.38 28.7211 27.273C28.7691 27.1789 28.8455 27.1024 28.9396 27.0545C29.0466 27 29.1866 27 29.4666 27H35.8666C36.1467 27 36.2867 27 36.3936 27.0545C36.4877 27.1024 36.5642 27.1789 36.6121 27.273C36.6666 27.38 36.6666 27.52 36.6666 27.8V28M32.6666 20L36.245 26.2622C36.402 26.5369 36.4805 26.6743 36.536 26.8202C36.5853 26.9497 36.6209 27.084 36.6424 27.2209C36.6666 27.3751 36.6666 27.5333 36.6666 27.8498V28M26.6666 16V21" stroke="#CECFD2" stroke-width="2" stroke-linecap="round" stroke-linejoin="round"/>
</g>
<defs>
<filter id="filter0_d_4_641" x="0.666626" y="0" width="52" height="52" filterUnits="userSpaceOnUse" color-interpolation-filters="sRGB">
<feFlood flood-opacity="0" result="BackgroundImageFix"/>
<feColorMatrix in="SourceAlpha" type="matrix" values="0 0 0 0 0 0 0 0 0 0 0 0 0 0 0 0 0 0 127 0" result="hardAlpha"/>
<feOffset dy="1"/>
<feGaussianBlur stdDeviation="1"/>
<feComposite in2="hardAlpha" operator="out"/>
<feColorMatrix type="matrix" values="0 0 0 0 0.0627451 0 0 0 0 0.0941176 0 0 0 0 0.156863 0 0 0 0.05 0"/>
<feBlend mode="normal" in2="BackgroundImageFix" result="effect1_dropShadow_4_641"/>
<feBlend mode="normal" in="SourceGraphic" in2="effect1_dropShadow_4_641" result="shape"/>
</filter>
</defs>
</svg>
