<svg width="15" height="19" viewBox="0 0 15 19" fill="none" xmlns="http://www.w3.org/2000/svg">
<path fill-rule="evenodd" clip-rule="evenodd" d="M4.48559 17.5976L4.77989 15.6655L4.1243 15.6497H0.993715L3.16936 1.39152C3.17614 1.34834 3.19805 1.30826 3.23005 1.27975C3.2622 1.25124 3.30319 1.2356 3.34606 1.2356H8.6247C10.3773 1.2356 11.5866 1.61244 12.2179 2.35637C12.514 2.70535 12.7025 3.07015 12.7938 3.47143C12.8894 3.8926 12.891 4.39571 12.7977 5.00946L12.7909 5.0541V5.4474L13.087 5.62076C13.3362 5.75745 13.5343 5.91386 13.6863 6.09292C13.9394 6.3914 14.1032 6.77069 14.1724 7.2202C14.244 7.68259 14.2203 8.23295 14.1032 8.85598C13.9681 9.57253 13.7498 10.1967 13.4549 10.7073C13.1837 11.1778 12.8382 11.5682 12.4279 11.8706C12.0362 12.158 11.5709 12.3762 11.0447 12.5158C10.5347 12.653 9.95339 12.7222 9.31576 12.7222H8.90497C8.6113 12.7222 8.32599 12.8315 8.10199 13.0275C7.87737 13.2276 7.72888 13.501 7.68332 13.8L7.65227 13.974L7.13224 17.3796L7.10875 17.5046C7.10245 17.5442 7.09173 17.5639 7.07596 17.5773C7.06193 17.5895 7.04176 17.5976 7.02205 17.5976H4.48559Z" fill="#28356A"/>
<path fill-rule="evenodd" clip-rule="evenodd" d="M13.3675 5.09961C13.3519 5.20372 13.3338 5.31011 13.3136 5.41943C12.6175 9.11362 10.2358 10.3898 7.19417 10.3898H5.64543C5.27342 10.3898 4.95989 10.6689 4.90203 11.0482L3.88452 17.7192C3.84684 17.9683 4.03253 18.1927 4.2756 18.1927H7.02251C7.3477 18.1927 7.62403 17.9485 7.67526 17.6169L7.70222 17.4727L8.21941 14.0804L8.25267 13.8944C8.30327 13.5617 8.58023 13.3173 8.90543 13.3173H9.31622C11.9775 13.3173 14.061 12.2006 14.6699 8.96878C14.9242 7.61877 14.7925 6.49149 14.1194 5.69869C13.9158 5.45968 13.6631 5.26123 13.3675 5.09961Z" fill="#298FC2"/>
<path fill-rule="evenodd" clip-rule="evenodd" d="M12.639 4.7995C12.5326 4.7674 12.4229 4.7384 12.3103 4.71217C12.1971 4.68659 12.0813 4.66394 11.962 4.64407C11.5444 4.57433 11.0868 4.54126 10.5967 4.54126H6.45932C6.35734 4.54126 6.26055 4.56505 6.17401 4.60806C5.98312 4.70288 5.8414 4.8896 5.80704 5.11818L4.92682 10.8802L4.9016 11.0482C4.95945 10.6689 5.27298 10.3898 5.64499 10.3898H7.19373C10.2354 10.3898 12.6171 9.11297 13.3132 5.41943C13.334 5.31011 13.3515 5.20372 13.3671 5.09961C13.191 5.00299 13.0003 4.92039 12.7949 4.85C12.7441 4.83257 12.6918 4.81579 12.639 4.7995Z" fill="#22284F"/>
<path fill-rule="evenodd" clip-rule="evenodd" d="M5.80728 5.1182C5.84164 4.88962 5.98335 4.70291 6.17425 4.60873C6.26142 4.56556 6.35757 4.54177 6.45956 4.54177H10.5969C11.087 4.54177 11.5446 4.57501 11.9622 4.64474C12.0815 4.66445 12.1974 4.68726 12.3106 4.71284C12.4231 4.73891 12.5328 4.76808 12.6392 4.80001C12.692 4.8163 12.7444 4.83325 12.7956 4.85003C13.001 4.92041 13.1919 5.00367 13.368 5.09963C13.5751 3.73447 13.3662 2.80498 12.6522 1.9633C11.8648 1.03658 10.4439 0.640015 8.62559 0.640015H3.34679C2.97541 0.640015 2.65857 0.919107 2.60119 1.29905L0.402533 15.7038C0.359184 15.9888 0.57183 16.2459 0.849894 16.2459H4.10879L5.80728 5.1182Z" fill="#28356A"/>
</svg>
