<svg width="34" height="16" viewBox="0 0 34 16" fill="none" xmlns="http://www.w3.org/2000/svg">
<path fill-rule="evenodd" clip-rule="evenodd" d="M18.3575 2.8559L16.0547 3.36465V1.44269L18.3575 0.943359V2.8559ZM23.1465 3.92051C22.2474 3.92051 21.6694 4.35389 21.3483 4.65538L21.229 4.07125H19.2106V15.0566L21.5043 14.5573L21.5134 11.891C21.8437 12.136 22.33 12.4846 23.1374 12.4846C24.7796 12.4846 26.2751 11.1279 26.2751 8.14129C26.2659 5.40909 24.7521 3.92051 23.1465 3.92051ZM22.596 10.4118C22.0547 10.4118 21.7336 10.214 21.5134 9.96902L21.5043 6.4737C21.7428 6.20048 22.0731 6.01205 22.596 6.01205C23.4309 6.01205 24.0089 6.97303 24.0089 8.20723C24.0089 9.46969 23.4401 10.4118 22.596 10.4118ZM33.5048 8.2355C33.5048 5.82363 32.3671 3.92051 30.1927 3.92051C28.0092 3.92051 26.688 5.82363 26.688 8.21666C26.688 11.0525 28.2477 12.4845 30.4863 12.4845C31.5781 12.4845 32.4038 12.2302 33.0277 11.8722V9.98788C32.4038 10.3082 31.6882 10.5061 30.7799 10.5061C29.89 10.5061 29.101 10.1857 29 9.074H33.4864C33.4864 9.02208 33.4897 8.90411 33.4935 8.7682C33.4987 8.58354 33.5048 8.36575 33.5048 8.2355ZM28.9725 7.34047C28.9725 6.27586 29.6055 5.83305 30.1835 5.83305C30.7432 5.83305 31.3395 6.27586 31.3395 7.34047H28.9725ZM16.0545 4.08069H18.3574V12.3244H16.0545V4.08069ZM13.44 4.08068L13.5868 4.77786C14.1281 3.76035 15.2015 3.96762 15.4951 4.08068V6.2476C15.2107 6.14396 14.2932 6.01206 13.7519 6.73751V12.3244H11.4583V4.08068H13.44ZM8.99933 2.03623L6.76071 2.52614L6.75154 10.0727C6.75154 11.467 7.76992 12.494 9.12777 12.494C9.88009 12.494 10.4306 12.3526 10.7333 12.1831V10.2705C10.4397 10.393 8.99015 10.8264 8.99015 9.43201V6.08742H10.7333V4.08067H8.99015L8.99933 2.03623ZM3.57723 5.96497C3.09097 5.96497 2.79738 6.10629 2.79738 6.47372C2.79738 6.8749 3.30265 7.05138 3.9295 7.27032C4.9514 7.62724 6.29641 8.09701 6.3021 9.83716C6.3021 11.5236 4.99012 12.494 3.0818 12.494C2.29278 12.494 1.43036 12.3338 0.577117 11.957V9.71468C1.34779 10.1481 2.3203 10.4684 3.0818 10.4684C3.59558 10.4684 3.96256 10.3271 3.96256 9.89369C3.96256 9.44931 3.41484 9.24619 2.75359 9.00097C1.74655 8.62752 0.476196 8.15642 0.476196 6.58678C0.476196 4.91919 1.71477 3.92053 3.57723 3.92053C4.33872 3.92053 5.09104 4.04301 5.85254 4.35391V6.56794C5.15527 6.18166 4.2745 5.96497 3.57723 5.96497Z" fill="#6461FC"/>
</svg>
