<svg width="33" height="12" viewBox="0 0 33 12" fill="none" xmlns="http://www.w3.org/2000/svg">
<path fill-rule="evenodd" clip-rule="evenodd" d="M8.33367 11.1444H5.58735L3.52795 3.05655C3.4302 2.68451 3.22265 2.3556 2.91735 2.20059C2.15545 1.81102 1.31589 1.50099 0.400005 1.34462V1.03324H4.82411C5.4347 1.03324 5.89265 1.50099 5.96897 2.04422L7.03751 7.87824L9.78249 1.03324H12.4525L8.33367 11.1444ZM13.979 11.1444H11.3853L13.521 1.03324H16.1147L13.979 11.1444ZM19.4703 3.83433C19.5466 3.28975 20.0045 2.97837 20.5388 2.97837C21.3784 2.90019 22.2929 3.05655 23.0562 3.44477L23.5141 1.2678C22.7509 0.956414 21.9113 0.800049 21.1494 0.800049C18.632 0.800049 16.8003 2.20059 16.8003 4.14437C16.8003 5.62309 18.0978 6.39952 19.0137 6.86727C20.0045 7.33367 20.3862 7.64505 20.3098 8.11145C20.3098 8.81105 19.5466 9.12243 18.7847 9.12243C17.8688 9.12243 16.9529 8.88923 16.1147 8.49966L15.6568 10.678C16.5726 11.0662 17.5635 11.2226 18.4794 11.2226C21.302 11.2994 23.0562 9.90021 23.0562 7.80007C23.0562 5.15535 19.4703 5.00033 19.4703 3.83433ZM32.1333 11.1444L30.0739 1.03324H27.8619C27.4039 1.03324 26.946 1.34462 26.7933 1.81102L22.9798 11.1444H25.6498L26.1828 9.667H29.4633L29.7686 11.1444H32.1333ZM28.2435 3.75616L29.0054 7.56688H26.8697L28.2435 3.75616Z" fill="#172B85"/>
</svg>
